<svg xmlns="http://www.w3.org/2000/svg" viewBox="0 0 32 27.71"><defs><style>.cls-1{fill:#e32;}.cls-2{fill:#fff;}</style></defs><g id="Layer_2" data-name="Layer 2"><g id="Layer_1-2" data-name="Layer 1"><polygon class="cls-1" points="16 27.71 0 27.71 8 13.86 16 0 24 13.86 32 27.71 16 27.71"/><path class="cls-2" d="M17.66,22.56a1.47,1.47,0,0,1-.47,1.07,1.53,1.53,0,0,1-1.18.45,1.66,1.66,0,0,1-1.18-.43,1.37,1.37,0,0,1-.48-1.09,1.48,1.48,0,0,1,.48-1.11A1.75,1.75,0,0,1,16,21a1.58,1.58,0,0,1,1.16.46A1.46,1.46,0,0,1,17.66,22.56Zm-.37-3.48H14.73V8.85h2.56Z"/></g></g></svg>