<svg xmlns="http://www.w3.org/2000/svg" viewBox="0 0 32 32"><defs><style>.cls-1{fill:#2ac1db;}.cls-2{fill:#fff;}</style></defs><g id="Layer_2" data-name="Layer 2"><g id="Layer_1-2" data-name="Layer 1"><circle class="cls-1" cx="16" cy="16" r="16"/><path class="cls-2" d="M13.75,7.67a2,2,0,0,1,.63-1.47A2.15,2.15,0,0,1,16,5.58a2.31,2.31,0,0,1,1.62.59,1.94,1.94,0,0,1,.66,1.5,2,2,0,0,1-.66,1.51A2.36,2.36,0,0,1,16,9.77a2.15,2.15,0,0,1-1.59-.62A2,2,0,0,1,13.75,7.67Zm.5,4.76h3.5v14h-3.5Z"/></g></g></svg>