<svg xmlns="http://www.w3.org/2000/svg" viewBox="0 0 21.1 26.8"><defs><style>.cls-1{fill:#00c8e1;}</style></defs><g id="Layer_2" data-name="Layer 2"><g id="Layer_1-2" data-name="Layer 1"><path class="cls-1" d="M19.83,12.58H18.39V7.47A8.19,8.19,0,0,0,16.2,2.1,7.67,7.67,0,0,0,10.55,0C6.18,0,4.06,2,3.05,3.62A7.58,7.58,0,0,0,1.94,7.31v5.27H1.26A1.26,1.26,0,0,0,0,13.84v11.7A1.26,1.26,0,0,0,1.26,26.8H19.83a1.27,1.27,0,0,0,1.27-1.26V13.84A1.27,1.27,0,0,0,19.83,12.58ZM4.94,7.32C5,6.6,5.28,3,10.55,3c4.57,0,4.83,3.72,4.84,4.46v5.12H4.94Z"/></g></g></svg>