<svg xmlns="http://www.w3.org/2000/svg" viewBox="0 0 69.55 36.59"><defs><style>.cls-1{fill:none;stroke:#0fc8df;stroke-miterlimit:10;stroke-width:0.5px;}</style></defs><g id="Layer_2" data-name="Layer 2"><g id="Layer_1-2" data-name="Layer 1"><path class="cls-1" d="M13.85,18.34a7,7,0,0,1,2.48,5.25c0,2,.06,3.93,0,5.89-.15,3.72-2.72,6.28-6.52,6.78-4,.51-7.43-1.48-8.65-4.8A13.53,13.53,0,0,1,.7,24.19a11,11,0,0,1,3.89,2c1.39,1.29.07,3.41,2.13,5.08A3.11,3.11,0,0,0,9,31.61,3,3,0,0,0,11.53,29c.06-.74,0-1.49,0-2.22,0-.54,0-1.08,0-1.61a5.74,5.74,0,0,0-2.41-4.34c-1.25-.89-2.62-1.54-3.85-2.37A11.55,11.55,0,0,1,1.62,3.5C3.63-.07,7,0,11.37.48c2.92.31,4.71,2.65,5,5.91.09,1.14,0,2.29,0,3.79-2.37-.64-4.1-1.54-4.92-3.76A2.68,2.68,0,0,0,7.86,4.65,3.49,3.49,0,0,0,5.34,8c-.36,3.13.52,5.6,3.44,7A25.09,25.09,0,0,1,13.85,18.34Z"/><path class="cls-1" d="M31.3.41H21.58v29h4.47V20.37h4.24s5.85-.63,5.85-5.4V4.74S35.28.41,31.3.41ZM32.41,13.5c0,1.69-2.12,2.29-2.12,2.29H26.17V4.41h4.18a2,2,0,0,1,2.06,2Z"/><path class="cls-1" d="M45.48.41H41v29H65.78s3.27-2.22,3.49-4.92h-24Z"/></g></g></svg>